<svg width="13" height="16" viewBox="0 0 13 16" fill="none" xmlns="http://www.w3.org/2000/svg">
<path fill-rule="evenodd" clip-rule="evenodd" d="M3.94468 6.5782C4.67424 7.32746 5.56715 7.70722 6.59831 7.70722C7.62924 7.70722 8.52203 7.32734 9.25171 6.57832C9.9814 5.82918 10.3514 4.91244 10.3514 3.85349C10.3514 2.79478 9.9814 1.87804 9.25183 1.1289C8.52227 0.379758 7.6296 0 6.59831 0C5.56727 0 4.67448 0.379758 3.94479 1.12878C3.21511 1.87816 2.84527 2.7949 2.84527 3.85349C2.84527 4.91244 3.21511 5.82906 3.94468 6.5782ZM0.157754 11.2922C0.0951042 11.6513 0.0525445 11.9914 0.0315027 12.3031C0.0106987 12.6078 0.000118872 12.9258 0 13.2482C0 14.0838 0.258564 14.76 0.768559 15.2583C1.27225 15.7505 1.93834 16 2.74862 16H10.2514C11.0617 16 11.728 15.7504 12.2316 15.2583C12.7414 14.7597 13 14.0835 13 13.2483C13 12.9274 12.9895 12.6096 12.9689 12.3035C12.9478 11.991 12.9053 11.6508 12.8426 11.2922C12.7794 10.9303 12.6979 10.5884 12.6006 10.2758C12.4998 9.95244 12.3628 9.63347 12.1936 9.32769C12.0182 9.01043 11.8117 8.73419 11.5802 8.50665C11.3378 8.26849 11.0412 8.07721 10.6986 7.93793C10.3571 7.79901 9.97855 7.72858 9.5734 7.72858C9.41434 7.72858 9.26039 7.79559 8.96367 7.9942C8.7781 8.11835 8.56411 8.25995 8.32766 8.4151C8.12378 8.54864 7.84727 8.67376 7.50608 8.78692C7.1725 8.89764 6.83429 8.95379 6.50036 8.95379C6.16642 8.95379 5.82809 8.89764 5.49487 8.78692C5.15333 8.67364 4.87681 8.54852 4.6727 8.41497C4.43399 8.25836 4.22012 8.11676 4.03728 7.99432C3.7402 7.79572 3.58637 7.7287 3.42731 7.7287C3.02228 7.7287 2.64365 7.79901 2.30199 7.93781C1.95914 8.07733 1.66266 8.26861 1.4205 8.50653C1.18892 8.73394 0.982543 9.01031 0.806838 9.32769C0.637553 9.63347 0.500603 9.95256 0.399912 10.2757C0.30243 10.5883 0.220998 10.9303 0.157754 11.2922Z" fill="#9EBBBD"/>
</svg>
